# xmcd CD database file
#
# Track frame offsets:
#	150
#	13547
#	25967
#	36662
#	50282
#	61502
#	70172
#	81167
#	92312
#	103007
#	114977
#	125297
#	136967
#	147812
#	158582
#	170027
#	182447
#	194792
#	205712
#	218057
#	228977
#	238322
#	249017
#	258812
#	270107
#
# Disc length: 3751 seconds
#
# Revision: 0
# Processed by: cddbd v1.5.2PL0 Copyright (c) Steve Scherf et al.
# Submitted via: CDex 1.51
#
DISCID=470ea519
DTITLE=Various Artist - Country Western  CD 15  1954
DYEAR=2012
DGENRE=Country
TTITLE0=Hank Snow-I Don't Hurt Anymore
TTITLE1=Webb Pierce-Even Tho
TTITLE2=Little Jimmy Dickens-Out Behind The Barn
TTITLE3=Lefty Frizzell-Run Em Off
TTITLE4=Faron Young-A Place For Girls Like You
TTITLE5=Carl Smith-Baby I'm Ready
TTITLE6=Jim Reeves-Then I'll Stop Loving You
TTITLE7=Kitty Wells-You Shalt Not Steal
TTITLE8=Budd Hobbs-Louisiana Swing
TTITLE9=Ray Price-Release Me
TTITLE10=Slim Whitman-Rose Marie
TTITLE11=Eddy Arnold-I Really Don't Want To Know
TTITLE12=Webb Pierce-More And More
TTITLE13=Hank Thompson-Honky Tonk Girl
TTITLE14=Carroll Free-The Wreck Of The Old Number 9
TTITLE15=Little Jimmy Dickens-You All Come
TTITLE16=Johnny Horton-The Train With The Rhumba Beat
TTITLE17=The Browns-Looking Back To See
TTITLE18=Tommy Collins-Watcha Gonna Do Now
TTITLE19=Ray Price-I'll Be There
TTITLE20=Hank Snow-That Crazy Mambo Thing
TTITLE21=Carl Smith-Dog Gone It Baby I'm In Love
TTITLE22=Marty Robbins-Call Me Up
TTITLE23=Webb Pierce-Slowly-Stereo
TTITLE24=Jim Reeves-I Love You
EXTD=YEAR: 2012
EXTT0=
EXTT1=
EXTT2=
EXTT3=
EXTT4=
EXTT5=
EXTT6=
EXTT7=
EXTT8=
EXTT9=
EXTT10=
EXTT11=
EXTT12=
EXTT13=
EXTT14=
EXTT15=
EXTT16=
EXTT17=
EXTT18=
EXTT19=
EXTT20=
EXTT21=
EXTT22=
EXTT23=
EXTT24=
PLAYORDER=
